<?xml version="1.0" encoding="UTF-8" standalone="no"?><!DOCTYPE svg PUBLIC "-//W3C//DTD SVG 1.1//EN" "http://www.w3.org/Graphics/SVG/1.1/DTD/svg11.dtd"><svg width="100%" height="100%" viewBox="0 0 59 65" version="1.1" xmlns="http://www.w3.org/2000/svg" xmlns:xlink="http://www.w3.org/1999/xlink" xml:space="preserve" xmlns:serif="http://www.serif.com/" style="fill-rule:evenodd;clip-rule:evenodd;stroke-linejoin:round;stroke-miterlimit:2;"><path d="M32.104,0c7.064,0.013 14.17,2.349 20.08,7.139c1.62,1.313 3.078,2.751 4.372,4.291c0.251,0.298 0.495,0.6 0.733,0.905l-0.38,-0.469c2.781,3.434 2.251,8.48 -1.183,11.261c-3.389,2.745 -8.348,2.264 -11.15,-1.05c-0.07,-0.088 -0.141,-0.176 -0.213,-0.263c-0.665,-0.803 -1.419,-1.552 -2.259,-2.233c-6.866,-5.564 -16.958,-4.507 -22.522,2.36c-5.564,6.866 -4.507,16.958 2.36,22.522c6.866,5.564 16.958,4.507 22.522,-2.36c2.782,-3.433 7.828,-3.962 11.261,-1.18c3.433,2.782 3.962,7.828 1.18,11.261c-11.128,13.733 -31.312,15.847 -45.045,4.719c-13.733,-11.128 -15.847,-31.312 -4.719,-45.045c1.408,-1.738 2.962,-3.29 4.628,-4.652l-0.959,0c-1.988,0 -3.603,-1.614 -3.603,-3.603c-0,-1.988 1.614,-3.603 3.603,-3.603l21.295,0Zm20.07,15.627c-1.172,1.172 -3.074,1.172 -4.246,-0c-1.172,-1.172 -1.172,-3.074 -0,-4.246l-2.123,-2.123c-2.343,2.343 -2.343,6.149 -0,8.492c2.343,2.343 6.149,2.343 8.492,-0l-2.123,-2.123Z"/></svg>