<?xml version="1.0" encoding="UTF-8" standalone="no"?><!DOCTYPE svg PUBLIC "-//W3C//DTD SVG 1.1//EN" "http://www.w3.org/Graphics/SVG/1.1/DTD/svg11.dtd"><svg width="100%" height="100%" viewBox="0 0 107 107" version="1.1" xmlns="http://www.w3.org/2000/svg" xmlns:xlink="http://www.w3.org/1999/xlink" xml:space="preserve" xmlns:serif="http://www.serif.com/" style="fill-rule:evenodd;clip-rule:evenodd;stroke-linejoin:round;stroke-miterlimit:2;"><circle cx="53.466" cy="53.466" r="53.466" style="fill:#fff;"/><path d="M54.557,18.577c7.918,0.014 15.881,2.633 22.506,8.001c1.816,1.471 3.45,3.084 4.9,4.809c0.281,0.334 0.555,0.672 0.822,1.015l-0.426,-0.526c3.117,3.849 2.523,9.504 -1.326,12.621c-3.798,3.076 -9.356,2.538 -12.498,-1.177c-0.079,-0.099 -0.158,-0.197 -0.239,-0.295c-0.745,-0.9 -1.59,-1.739 -2.532,-2.503c-7.696,-6.236 -19.007,-5.051 -25.243,2.645c-6.236,7.696 -5.051,19.007 2.645,25.243c7.696,6.236 19.007,5.051 25.243,-2.645c3.118,-3.848 8.774,-4.44 12.622,-1.322c3.848,3.118 4.44,8.774 1.322,12.622c-12.473,15.392 -35.095,17.762 -50.487,5.289c-15.392,-12.473 -17.762,-35.095 -5.289,-50.487c1.578,-1.948 3.319,-3.687 5.188,-5.214l-1.074,0c-2.229,0 -4.038,-1.809 -4.038,-4.038c-0,-2.229 1.809,-4.038 4.038,-4.038l23.868,0Zm22.495,17.514c-1.313,1.313 -3.446,1.313 -4.759,-0c-1.313,-1.313 -1.313,-3.446 0,-4.759l-2.38,-2.38c-2.627,2.627 -2.627,6.891 0,9.518c2.627,2.627 6.891,2.627 9.518,0l-2.38,-2.38Z"/></svg>